<svg width="179" height="42" viewBox="0 0 179 42" fill="none" xmlns="http://www.w3.org/2000/svg">
<path d="M55.4403 7.67188V6.72727H61.0689V7.67188H58.7997V14H57.706V7.67188H55.4403ZM63.734 14.1101C63.2227 14.1101 62.7764 13.9929 62.3952 13.7585C62.0141 13.5241 61.7182 13.1963 61.5075 12.7749C61.2968 12.3535 61.1914 11.861 61.1914 11.2976C61.1914 10.7318 61.2968 10.237 61.5075 9.81321C61.7182 9.38944 62.0141 9.06037 62.3952 8.82599C62.7764 8.59162 63.2227 8.47443 63.734 8.47443C64.2454 8.47443 64.6916 8.59162 65.0728 8.82599C65.454 9.06037 65.7499 9.38944 65.9606 9.81321C66.1713 10.237 66.2766 10.7318 66.2766 11.2976C66.2766 11.861 66.1713 12.3535 65.9606 12.7749C65.7499 13.1963 65.454 13.5241 65.0728 13.7585C64.6916 13.9929 64.2454 14.1101 63.734 14.1101ZM63.7376 13.2188C64.069 13.2188 64.3436 13.1312 64.5614 12.956C64.7792 12.7808 64.9402 12.5476 65.0444 12.2564C65.1509 11.9652 65.2042 11.6444 65.2042 11.294C65.2042 10.946 65.1509 10.6264 65.0444 10.3352C64.9402 10.0417 64.7792 9.80611 64.5614 9.62855C64.3436 9.45099 64.069 9.36222 63.7376 9.36222C63.4038 9.36222 63.1268 9.45099 62.9066 9.62855C62.6888 9.80611 62.5266 10.0417 62.4201 10.3352C62.3159 10.6264 62.2638 10.946 62.2638 11.294C62.2638 11.6444 62.3159 11.9652 62.4201 12.2564C62.5266 12.5476 62.6888 12.7808 62.9066 12.956C63.1268 13.1312 63.4038 13.2188 63.7376 13.2188ZM68.4384 12.1499L68.4313 10.8537H68.6159L70.7892 8.54545H72.0605L69.5819 11.1733H69.415L68.4384 12.1499ZM67.4618 14V6.72727H68.5236V14H67.4618ZM70.9064 14L68.9533 11.4077L69.6848 10.6655L72.2097 14H70.9064ZM75.1012 14.1101C74.5898 14.1101 74.1436 13.9929 73.7624 13.7585C73.3813 13.5241 73.0853 13.1963 72.8746 12.7749C72.6639 12.3535 72.5586 11.861 72.5586 11.2976C72.5586 10.7318 72.6639 10.237 72.8746 9.81321C73.0853 9.38944 73.3813 9.06037 73.7624 8.82599C74.1436 8.59162 74.5898 8.47443 75.1012 8.47443C75.6126 8.47443 76.0588 8.59162 76.44 8.82599C76.8211 9.06037 77.1171 9.38944 77.3278 9.81321C77.5385 10.237 77.6438 10.7318 77.6438 11.2976C77.6438 11.861 77.5385 12.3535 77.3278 12.7749C77.1171 13.1963 76.8211 13.5241 76.44 13.7585C76.0588 13.9929 75.6126 14.1101 75.1012 14.1101ZM75.1048 13.2188C75.4362 13.2188 75.7108 13.1312 75.9286 12.956C76.1464 12.7808 76.3074 12.5476 76.4116 12.2564C76.5181 11.9652 76.5714 11.6444 76.5714 11.294C76.5714 10.946 76.5181 10.6264 76.4116 10.3352C76.3074 10.0417 76.1464 9.80611 75.9286 9.62855C75.7108 9.45099 75.4362 9.36222 75.1048 9.36222C74.771 9.36222 74.494 9.45099 74.2738 9.62855C74.056 9.80611 73.8938 10.0417 73.7873 10.3352C73.6831 10.6264 73.631 10.946 73.631 11.294C73.631 11.6444 73.6831 11.9652 73.7873 12.2564C73.8938 12.5476 74.056 12.7808 74.2738 12.956C74.494 13.1312 74.771 13.2188 75.1048 13.2188ZM56.2784 33V21.3636H63.4943V22.875H58.0341V26.4205H62.9773V27.9261H58.0341V33H56.2784ZM68.6378 33.1761C67.7779 33.1761 67.0374 32.9924 66.4162 32.625C65.7988 32.2538 65.3215 31.733 64.9844 31.0625C64.651 30.3883 64.4844 29.5985 64.4844 28.6932C64.4844 27.7992 64.651 27.0114 64.9844 26.3295C65.3215 25.6477 65.7912 25.1155 66.3935 24.733C66.9995 24.3504 67.7079 24.1591 68.5185 24.1591C69.0109 24.1591 69.4882 24.2405 69.9503 24.4034C70.4124 24.5663 70.8272 24.822 71.1946 25.1705C71.562 25.5189 71.8518 25.9716 72.0639 26.5284C72.276 27.0814 72.3821 27.7538 72.3821 28.5455V29.1477H65.4446V27.875H70.7173C70.7173 27.428 70.6264 27.0322 70.4446 26.6875C70.2628 26.339 70.0071 26.0644 69.6776 25.8636C69.3518 25.6629 68.9692 25.5625 68.5298 25.5625C68.0526 25.5625 67.6359 25.6799 67.2798 25.9148C66.9276 26.1458 66.6548 26.4489 66.4616 26.8239C66.2723 27.1951 66.1776 27.5985 66.1776 28.0341V29.0284C66.1776 29.6117 66.2798 30.108 66.4844 30.517C66.6927 30.9261 66.9825 31.2386 67.3537 31.4545C67.7249 31.6667 68.1586 31.7727 68.6548 31.7727C68.9768 31.7727 69.2704 31.7273 69.5355 31.6364C69.8007 31.5417 70.0298 31.4015 70.223 31.2159C70.4162 31.0303 70.5639 30.8011 70.6662 30.5284L72.2741 30.8182C72.1454 31.2917 71.9143 31.7064 71.581 32.0625C71.2514 32.4148 70.8366 32.6894 70.3366 32.8864C69.8404 33.0795 69.2741 33.1761 68.6378 33.1761ZM74.4034 33V21.3636H76.1023V25.6875H76.2045C76.303 25.5057 76.4451 25.2955 76.6307 25.0568C76.8163 24.8182 77.0739 24.6098 77.4034 24.4318C77.733 24.25 78.1686 24.1591 78.7102 24.1591C79.4148 24.1591 80.0436 24.3371 80.5966 24.6932C81.1496 25.0492 81.5833 25.5625 81.8977 26.233C82.2159 26.9034 82.375 27.7102 82.375 28.6534C82.375 29.5966 82.2178 30.4053 81.9034 31.0795C81.589 31.75 81.1572 32.267 80.608 32.6307C80.0587 32.9905 79.4318 33.1705 78.7273 33.1705C78.197 33.1705 77.7633 33.0814 77.4261 32.9034C77.0928 32.7254 76.8314 32.517 76.642 32.2784C76.4527 32.0398 76.3068 31.8277 76.2045 31.642H76.0625V33H74.4034ZM76.0682 28.6364C76.0682 29.25 76.1572 29.7879 76.3352 30.25C76.5133 30.7121 76.7708 31.0739 77.108 31.3352C77.4451 31.5928 77.858 31.7216 78.3466 31.7216C78.8542 31.7216 79.2784 31.5871 79.6193 31.3182C79.9602 31.0455 80.2178 30.6761 80.392 30.2102C80.5701 29.7443 80.6591 29.2197 80.6591 28.6364C80.6591 28.0606 80.572 27.5436 80.3977 27.0852C80.2273 26.6269 79.9697 26.2652 79.625 26C79.2841 25.7348 78.858 25.6023 78.3466 25.6023C77.8542 25.6023 77.4375 25.7292 77.0966 25.983C76.7595 26.2367 76.5038 26.5909 76.3295 27.0455C76.1553 27.5 76.0682 28.0303 76.0682 28.6364ZM84.2827 33V24.2727H85.9247V25.6591H86.0156C86.1747 25.1894 86.455 24.8201 86.8565 24.5511C87.2618 24.2784 87.7202 24.142 88.2315 24.142C88.3376 24.142 88.4626 24.1458 88.6065 24.1534C88.7543 24.161 88.8698 24.1705 88.9531 24.1818V25.8068C88.8849 25.7879 88.7637 25.767 88.5895 25.7443C88.4152 25.7178 88.241 25.7045 88.0668 25.7045C87.6652 25.7045 87.3073 25.7898 86.9929 25.9602C86.6823 26.1269 86.4361 26.3598 86.2543 26.6591C86.0724 26.9545 85.9815 27.2917 85.9815 27.6705V33H84.2827ZM90.4233 33V24.2727H92.1222V33H90.4233ZM91.2812 22.9261C90.9858 22.9261 90.732 22.8277 90.5199 22.6307C90.3116 22.4299 90.2074 22.1913 90.2074 21.9148C90.2074 21.6345 90.3116 21.3958 90.5199 21.1989C90.732 20.9981 90.9858 20.8977 91.2812 20.8977C91.5767 20.8977 91.8286 20.9981 92.0369 21.1989C92.2491 21.3958 92.3551 21.6345 92.3551 21.9148C92.3551 22.1913 92.2491 22.4299 92.0369 22.6307C91.8286 22.8277 91.5767 22.9261 91.2812 22.9261ZM98.7784 33V21.3636H100.534V31.4886H105.807V33H98.7784ZM111.435 33.1761C110.575 33.1761 109.834 32.9924 109.213 32.625C108.596 32.2538 108.118 31.733 107.781 31.0625C107.448 30.3883 107.281 29.5985 107.281 28.6932C107.281 27.7992 107.448 27.0114 107.781 26.3295C108.118 25.6477 108.588 25.1155 109.19 24.733C109.796 24.3504 110.505 24.1591 111.315 24.1591C111.808 24.1591 112.285 24.2405 112.747 24.4034C113.209 24.5663 113.624 24.822 113.991 25.1705C114.359 25.5189 114.649 25.9716 114.861 26.5284C115.073 27.0814 115.179 27.7538 115.179 28.5455V29.1477H108.241V27.875H113.514C113.514 27.428 113.423 27.0322 113.241 26.6875C113.06 26.339 112.804 26.0644 112.474 25.8636C112.149 25.6629 111.766 25.5625 111.327 25.5625C110.849 25.5625 110.433 25.6799 110.077 25.9148C109.724 26.1458 109.452 26.4489 109.259 26.8239C109.069 27.1951 108.974 27.5985 108.974 28.0341V29.0284C108.974 29.6117 109.077 30.108 109.281 30.517C109.49 30.9261 109.779 31.2386 110.151 31.4545C110.522 31.6667 110.955 31.7727 111.452 31.7727C111.774 31.7727 112.067 31.7273 112.332 31.6364C112.598 31.5417 112.827 31.4015 113.02 31.2159C113.213 31.0303 113.361 30.8011 113.463 30.5284L115.071 30.8182C114.942 31.2917 114.711 31.7064 114.378 32.0625C114.048 32.4148 113.634 32.6894 113.134 32.8864C112.637 33.0795 112.071 33.1761 111.435 33.1761ZM123.604 26.4034L122.064 26.6761C122 26.4792 121.897 26.2917 121.757 26.1136C121.621 25.9356 121.435 25.7898 121.2 25.6761C120.965 25.5625 120.672 25.5057 120.32 25.5057C119.839 25.5057 119.437 25.6136 119.115 25.8295C118.793 26.0417 118.632 26.3163 118.632 26.6534C118.632 26.9451 118.74 27.1799 118.956 27.358C119.172 27.536 119.52 27.6818 120.001 27.7955L121.388 28.1136C122.191 28.2992 122.789 28.5852 123.183 28.9716C123.577 29.358 123.774 29.8598 123.774 30.4773C123.774 31 123.623 31.4659 123.32 31.875C123.02 32.2803 122.602 32.5985 122.064 32.8295C121.53 33.0606 120.911 33.1761 120.206 33.1761C119.229 33.1761 118.431 32.9678 117.814 32.5511C117.196 32.1307 116.818 31.5341 116.678 30.7614L118.32 30.5114C118.422 30.9394 118.632 31.2633 118.95 31.483C119.268 31.6989 119.683 31.8068 120.195 31.8068C120.751 31.8068 121.196 31.6913 121.53 31.4602C121.863 31.2254 122.03 30.9394 122.03 30.6023C122.03 30.3295 121.928 30.1004 121.723 29.9148C121.522 29.7292 121.214 29.589 120.797 29.4943L119.32 29.1705C118.505 28.9848 117.903 28.6894 117.513 28.2841C117.126 27.8788 116.933 27.3655 116.933 26.7443C116.933 26.2292 117.077 25.7784 117.365 25.392C117.653 25.0057 118.051 24.7045 118.558 24.4886C119.066 24.2689 119.647 24.1591 120.303 24.1591C121.246 24.1591 121.988 24.3636 122.53 24.7727C123.071 25.178 123.429 25.7216 123.604 26.4034ZM129.716 24.2727V25.6364H124.949V24.2727H129.716ZM126.227 22.1818H127.926V30.4375C127.926 30.767 127.975 31.0152 128.074 31.1818C128.172 31.3447 128.299 31.4564 128.455 31.517C128.614 31.5739 128.786 31.6023 128.972 31.6023C129.108 31.6023 129.227 31.5928 129.33 31.5739C129.432 31.5549 129.511 31.5398 129.568 31.5284L129.875 32.9318C129.777 32.9697 129.636 33.0076 129.455 33.0455C129.273 33.0871 129.045 33.1098 128.773 33.1136C128.326 33.1212 127.909 33.0417 127.523 32.875C127.136 32.7083 126.824 32.4508 126.585 32.1023C126.347 31.7538 126.227 31.3163 126.227 30.7898V22.1818ZM134.135 33.1932C133.582 33.1932 133.082 33.0909 132.635 32.8864C132.188 32.678 131.834 32.3769 131.572 31.983C131.315 31.589 131.186 31.1061 131.186 30.5341C131.186 30.0417 131.281 29.6364 131.47 29.3182C131.66 29 131.915 28.7481 132.237 28.5625C132.559 28.3769 132.919 28.2367 133.317 28.142C133.714 28.0473 134.12 27.9754 134.533 27.9261C135.055 27.8655 135.48 27.8163 135.805 27.7784C136.131 27.7367 136.368 27.6705 136.516 27.5795C136.663 27.4886 136.737 27.3409 136.737 27.1364V27.0966C136.737 26.6004 136.597 26.2159 136.317 25.9432C136.04 25.6705 135.627 25.5341 135.078 25.5341C134.506 25.5341 134.055 25.661 133.726 25.9148C133.4 26.1648 133.175 26.4432 133.05 26.75L131.453 26.3864C131.643 25.8561 131.919 25.428 132.283 25.1023C132.65 24.7727 133.072 24.5341 133.55 24.3864C134.027 24.2348 134.529 24.1591 135.055 24.1591C135.404 24.1591 135.773 24.2008 136.163 24.2841C136.557 24.3636 136.925 24.5114 137.266 24.7273C137.61 24.9432 137.893 25.2519 138.112 25.6534C138.332 26.0511 138.442 26.5682 138.442 27.2045V33H136.783V31.8068H136.714C136.605 32.0265 136.44 32.2424 136.22 32.4545C136 32.6667 135.718 32.8428 135.374 32.983C135.029 33.1231 134.616 33.1932 134.135 33.1932ZM134.504 31.8295C134.974 31.8295 135.375 31.7367 135.709 31.5511C136.046 31.3655 136.302 31.1231 136.476 30.8239C136.654 30.5208 136.743 30.197 136.743 29.8523V28.7273C136.682 28.7879 136.565 28.8447 136.391 28.8977C136.22 28.947 136.025 28.9905 135.805 29.0284C135.586 29.0625 135.372 29.0947 135.163 29.125C134.955 29.1515 134.781 29.1742 134.641 29.1932C134.311 29.2348 134.01 29.3049 133.737 29.4034C133.468 29.5019 133.252 29.6439 133.089 29.8295C132.93 30.0114 132.851 30.2538 132.851 30.5568C132.851 30.9773 133.006 31.2955 133.317 31.5114C133.627 31.7235 134.023 31.8295 134.504 31.8295ZM140.705 33V24.2727H142.347V25.6591H142.438C142.597 25.1894 142.877 24.8201 143.278 24.5511C143.684 24.2784 144.142 24.142 144.653 24.142C144.759 24.142 144.884 24.1458 145.028 24.1534C145.176 24.161 145.292 24.1705 145.375 24.1818V25.8068C145.307 25.7879 145.186 25.767 145.011 25.7443C144.837 25.7178 144.663 25.7045 144.489 25.7045C144.087 25.7045 143.729 25.7898 143.415 25.9602C143.104 26.1269 142.858 26.3598 142.676 26.6591C142.494 26.9545 142.403 27.2917 142.403 27.6705V33H140.705ZM146.845 33V24.2727H148.544V33H146.845ZM147.703 22.9261C147.408 22.9261 147.154 22.8277 146.942 22.6307C146.733 22.4299 146.629 22.1913 146.629 21.9148C146.629 21.6345 146.733 21.3958 146.942 21.1989C147.154 20.9981 147.408 20.8977 147.703 20.8977C147.999 20.8977 148.25 20.9981 148.459 21.1989C148.671 21.3958 148.777 21.6345 148.777 21.9148C148.777 22.1913 148.671 22.4299 148.459 22.6307C148.25 22.8277 147.999 22.9261 147.703 22.9261Z" fill="#03C3EC"/>
<path d="M14 7H8.75C8.28588 7 7.84076 7.18437 7.51257 7.51256C7.18438 7.84075 7.00001 8.28587 7.00001 8.75V12.25C7.00001 12.7141 7.18438 13.1592 7.51257 13.4874C7.84076 13.8156 8.28588 14 8.75 14H12.25C12.7141 14 13.1593 13.8156 13.4874 13.4874C13.8156 13.1592 14 12.7141 14 12.25V7ZM8.76751 17.5V34.9388H12.25V26.25C12.25 25.3217 12.6188 24.4315 13.2751 23.7751C13.9315 23.1187 14.8217 22.75 15.75 22.75H19.25C20.1783 22.75 21.0685 23.1187 21.7249 23.7751C22.3813 24.4315 22.75 25.3217 22.75 26.25V34.9388H33.2728V17.5H29.75C28.406 17.5 27.1775 16.9943 26.25 16.163C25.2884 17.0255 24.0417 17.5018 22.75 17.5H19.25C17.906 17.5 16.6775 16.9943 15.75 16.163C14.7884 17.0255 13.5417 17.5018 12.25 17.5H8.76751ZM5.2675 16.1805C4.71095 15.6882 4.26552 15.0831 3.96078 14.4055C3.65604 13.7278 3.49897 12.993 3.50001 12.25V8.75C3.50001 7.35761 4.05313 6.02226 5.03769 5.03769C6.02226 4.05312 7.35762 3.5 8.75 3.5L33.25 3.5C34.6424 3.5 35.9778 4.05312 36.9623 5.03769C37.9469 6.02226 38.5 7.35761 38.5 8.75V12.25C38.5 13.7935 37.835 15.183 36.7728 16.1438V34.9388C36.7728 35.867 36.404 36.7572 35.7476 37.4136C35.0913 38.07 34.201 38.4388 33.2728 38.4388H19.9028C19.6876 38.4794 19.469 38.5 19.25 38.5H15.75C15.531 38.5 15.3125 38.4794 15.0973 38.4388H8.76925C7.841 38.4388 6.95076 38.07 6.29438 37.4136C5.638 36.7572 5.26926 35.867 5.26926 34.9388V16.1788L5.2675 16.1805ZM19.25 34.9405V26.25H15.75V34.9388L19.25 34.9405ZM24.5 7H17.5V12.25C17.5 12.7141 17.6844 13.1592 18.0126 13.4874C18.3408 13.8156 18.7859 14 19.25 14H22.75C23.2141 14 23.6593 13.8156 23.9874 13.4874C24.3156 13.1592 24.5 12.7141 24.5 12.25V7ZM28 7V12.25C28 12.7141 28.1844 13.1592 28.5126 13.4874C28.8408 13.8156 29.2859 14 29.75 14H33.25C33.7141 14 34.1593 13.8156 34.4874 13.4874C34.8156 13.1592 35 12.7141 35 12.25V8.75C35 8.28587 34.8156 7.84075 34.4874 7.51256C34.1593 7.18437 33.7141 7 33.25 7H28ZM28 22.75H29.75C30.2141 22.75 30.6593 22.9344 30.9874 23.2626C31.3156 23.5908 31.5 24.0359 31.5 24.5V29.75C31.5 30.2141 31.3156 30.6592 30.9874 30.9874C30.6593 31.3156 30.2141 31.5 29.75 31.5H28C27.5359 31.5 27.0908 31.3156 26.7626 30.9874C26.4344 30.6592 26.25 30.2141 26.25 29.75V24.5C26.25 24.0359 26.4344 23.5908 26.7626 23.2626C27.0908 22.9344 27.5359 22.75 28 22.75Z" fill="#03C3EC"/>
</svg>
