<svg width="20" height="20" viewBox="0 0 20 20" fill="none" xmlns="http://www.w3.org/2000/svg">
<path d="M5 0.833333C5 0.3725 5.37333 0 5.83333 0H14.1667C14.6267 0 15 0.3725 15 0.833333C15 1.29417 14.6267 1.66667 14.1667 1.66667H5.83333C5.37333 1.66667 5 1.29417 5 0.833333ZM3.33333 5.83333H16.6667C17.1267 5.83333 17.5 5.46083 17.5 5C17.5 4.53917 17.1267 4.16667 16.6667 4.16667H3.33333C2.87333 4.16667 2.5 4.53917 2.5 5C2.5 5.46083 2.87333 5.83333 3.33333 5.83333ZM20 15C20 17.7617 17.7617 20 15 20C12.2383 20 10 17.7617 10 15C10 12.2383 12.2383 10 15 10C17.7617 10 20 12.2383 20 15ZM17.9167 15C17.9167 14.5392 17.5442 14.1667 17.0833 14.1667H15.8333H15.4548C15.2455 14.1667 15.4608 14.1667 15 14.1667C14.5392 14.1667 14.8174 14.1667 14.5336 14.1667H14.1667H12.9167C12.4558 14.1667 12.0833 14.5392 12.0833 15C12.0833 15.4608 12.4558 15.8333 12.9167 15.8333H14.1667H14.5336C14.7625 15.8333 14.5392 15.8333 15 15.8333C15.4608 15.8333 15.2125 15.8333 15.4548 15.8333H15.8333H17.0833C17.5442 15.8333 17.9167 15.4608 17.9167 15ZM8.33333 15C8.33333 11.3183 11.3183 8.33333 15 8.33333H4.16667C1.86917 8.33333 0 10.2025 0 12.5V15.8333C0 18.1308 1.86917 20 4.16667 20H10.5908C9.20667 18.7783 8.33333 16.9917 8.33333 15Z" fill="#03C3EC"/>
</svg>
