<svg width="20" height="20" viewBox="0 0 20 20" fill="none" xmlns="http://www.w3.org/2000/svg">
<path d="M17.0833 4.99992H4.58333C3.92583 4.99992 3.30833 4.68659 2.91667 4.16742C3.2975 3.66159 3.90333 3.33325 4.58333 3.33325H18.75C20.3933 3.30492 20.3925 0.860752 18.75 0.833252H4.58333C2.05667 0.833252 0 2.88909 0 5.41659V14.5833C0 17.1108 2.05667 19.1666 4.58333 19.1666H17.0833C18.6917 19.1666 20 17.8583 20 16.2499V7.91659C20 6.30825 18.6917 4.99992 17.0833 4.99992ZM17.5 16.2499C17.5 16.4799 17.3125 16.6666 17.0833 16.6666H4.58333C3.43417 16.6666 2.5 15.7316 2.5 14.5833V6.99659C3.13583 7.32159 3.84833 7.49992 4.58333 7.49992H17.0833C17.3125 7.49992 17.5 7.68659 17.5 7.91659V16.2499ZM15.8333 12.0833C15.805 13.7266 13.3608 13.7258 13.3333 12.0833C13.3617 10.4399 15.8058 10.4408 15.8333 12.0833Z" fill="#03C3EC"/>
</svg>
